<svg width="53" height="54" viewBox="0 0 53 54" fill="none" xmlns="http://www.w3.org/2000/svg">
<path fill-rule="evenodd" clip-rule="evenodd" d="M42.1792 42.888C43.4821 40.9005 43.9679 39.8847 44.9617 37.6543C37.63 34.8718 36.4596 24.4263 43.7029 20.4293C41.4946 17.6468 38.3808 16.0347 35.4438 16.0347C33.3238 16.0347 31.8663 16.5868 30.5633 17.0947C29.4592 17.5143 28.4654 17.8897 27.2288 17.8897C25.9038 17.8897 24.7333 17.4701 23.4967 17.0284C22.1717 16.5426 20.7583 16.0347 18.9917 16.0347C15.7013 16.0347 12.19 18.0443 9.95959 21.4893C6.82376 26.3476 7.37584 35.4459 12.4329 43.2192C14.2438 46.0017 16.6729 49.1155 19.8308 49.1597C21.1558 49.1818 22.0171 48.7842 22.9667 48.3647C24.0488 47.8788 25.2192 47.3488 27.2729 47.3488C29.3267 47.3268 30.475 47.8788 31.5571 48.3647C32.4846 48.7842 33.3238 49.1818 34.6267 49.1597C37.8067 49.1155 40.3683 45.6705 42.1792 42.888Z" fill="#2C6BCA"/>
<path opacity="0.4" fill-rule="evenodd" clip-rule="evenodd" d="M34.98 4.99316C35.3333 7.42233 34.3396 9.82941 33.0367 11.5077C31.6454 13.3186 29.2163 14.7319 26.8754 14.6436C26.4558 12.3027 27.5379 9.89566 28.8629 8.28358C30.3425 6.51691 32.8379 5.14775 34.98 4.99316Z" fill="#2C6BCA"/>
</svg>
