<svg width="53" height="54" viewBox="0 0 53 54" fill="none" xmlns="http://www.w3.org/2000/svg">
<path opacity="0.4" d="M35.7529 4.99316H17.2692C9.23084 4.99316 4.43875 9.78525 4.43875 17.8236V36.3073C4.43875 44.3457 9.23084 49.1377 17.2692 49.1377H35.7529C43.7913 49.1377 48.5833 44.3457 48.5833 36.3073V17.8236C48.5833 9.78525 43.7913 4.99316 35.7529 4.99316Z" fill="#2C6BCA"/>
<path d="M30.74 21.0698L30.8504 27.5844L36.6583 27.4961C37.0779 27.4961 37.3871 27.8715 37.3208 28.269L36.5479 32.4869C36.4817 32.7961 36.2167 33.0169 35.9075 33.039L30.9388 33.1273L31.2038 49.1377L24.5788 49.2481L24.3138 33.2377L20.5596 33.304C20.1842 33.304 19.8971 33.0169 19.8971 32.6415L19.8308 28.4456C19.8308 28.0702 20.1179 27.7831 20.4933 27.7831L24.2475 27.7169L24.1371 20.5398C24.1213 19.6695 24.2774 18.8046 24.5965 17.9947C24.9156 17.1848 25.3913 16.4458 25.9965 15.8201C26.6017 15.1944 27.3244 14.6942 28.1232 14.3484C28.9221 14.0025 29.7813 13.8176 30.6517 13.8044L36.6142 13.7161C36.9896 13.7161 37.2767 14.0031 37.2767 14.3786L37.365 19.6786C37.365 20.054 37.0779 20.3411 36.7025 20.3411L31.4025 20.4294C31.0271 20.4073 30.74 20.7165 30.74 21.0698Z" fill="#2C6BCA"/>
</svg>
