<svg width="52" height="54" viewBox="0 0 52 54" fill="none" xmlns="http://www.w3.org/2000/svg">
<path d="M26.4334 13.5394C26.2817 13.5394 26.1301 13.5394 26.0001 13.5615V5.01525C26.1517 4.99316 26.2817 4.99316 26.4334 4.99316C31.3301 4.99316 35.5334 6.51691 38.9784 9.10066C40.0617 9.89566 40.1484 11.5077 39.1951 12.4573L36.1834 15.4607C35.4467 16.1894 34.3201 16.3219 33.4751 15.7257C31.8501 14.5773 29.5317 13.5394 26.4334 13.5394ZM47.2334 27.5623C47.2334 34.2978 44.8717 39.9511 40.7767 43.8157C37.2017 47.1944 32.2834 49.1598 26.4334 49.1598C26.2817 49.1598 26.1517 49.1598 26.0001 49.1377V40.5915C26.1517 40.6136 26.2817 40.6136 26.4334 40.6136C29.6617 40.6136 32.1101 39.7082 33.9517 38.4052C36.8334 36.3515 38.1334 33.2819 38.3717 31.2502H28.6001C27.4084 31.2502 26.4334 30.2565 26.4334 29.0419V25.2657C26.4334 24.0511 27.4084 23.0573 28.6001 23.0573H44.9584C46.0634 23.0573 46.9951 23.8965 47.1034 25.0227C47.1901 25.7957 47.2334 26.6127 47.2334 27.5623Z" fill="#2C6BCA"/>
<path opacity="0.4" d="M14.0834 22.7083C13.6501 24.0774 13.3901 25.557 13.3901 27.0808C13.3901 28.6045 13.6501 30.062 14.1051 31.4533C15.7951 36.6429 20.4751 40.4191 26.0001 40.5958V49.142C22.0631 49.0679 18.2212 47.8968 14.8908 45.7558C11.5603 43.6147 8.86839 40.5854 7.10672 36.9962H7.08506C5.61172 33.9929 4.76672 30.6362 4.76672 27.0808C4.76672 23.5254 5.61172 20.1687 7.08506 17.1654C8.84919 13.5735 11.5447 10.5425 14.8792 8.40139C18.2136 6.26026 22.0597 5.09067 26.0001 5.01953V13.5658C20.8867 13.7204 16.5317 16.9445 14.5384 21.5158C14.3651 21.9133 14.2134 22.3108 14.0834 22.7083Z" fill="#2C6BCA"/>
</svg>
